<svg xmlns="http://www.w3.org/2000/svg" viewBox="0 0 435 657" preserveAspectRatio="xMidYMid meet">
<g transform="translate(0,657) scale(0.1,-0.1)" fill="#e8c14e" stroke="none">
<path d="M3423 6297 c-129 -174 -121 -152 -76 -225 21 -34 40 -62 44 -62 6 0 131 401 126 406 -2 2 -44 -52 -94 -119z"></path>
<path d="M1314 5850 c4 -135 11 -398 16 -585 5 -187 10 -388 10 -447 l0 -106 232 59 c127 33 235 62 239 64 4 3 -15 60 -43 127 -27 68 -140 348 -250 623 -110 275 -202 502 -205 505 -3 3 -2 -105 1 -240z"></path>
<path d="M2898 5759 c-177 -160 -336 -303 -351 -319 l-29 -27 46 -99 c25 -54 47 -99 50 -99 6 0 264 247 519 497 l207 203 -51 68 c-28 37 -55 67 -59 67 -5 0 -154 -131 -332 -291z"></path>
<path d="M2097 5265 c-164 -51 -300 -95 -303 -98 -5 -5 111 -286 124 -299 20 -21 171 38 379 149 120 63 221 118 225 122 13 12 -88 216 -108 218 -10 1 -153 -40 -317 -92z"></path>
<path d="M91 5223 c19 -21 69 -74 110 -118 41 -44 115 -123 164 -175 49 -52 101 -108 116 -124 l28 -29 10 24 c18 43 73 230 69 234 -5 5 -518 225 -526 225 -3 0 10 -17 29 -37z"></path>
<path d="M956 5024 c-142 -7 -260 -15 -262 -16 -11 -12 -83 -263 -77 -268 4 -4 112 -13 238 -19 127 -7 262 -15 301 -18 l71 -6 7 100 c7 99 -1 244 -13 242 -3 -1 -122 -8 -265 -15z"></path>
<path d="M1975 4769 c-441 -112 -595 -154 -593 -160 3 -9 182 -242 305 -398 78 -98 83 -102 93 -80 27 64 230 633 228 639 -2 4 -16 3 -33 -1z"></path>
<path d="M800 4379 c-245 -110 -449 -204 -454 -209 -10 -10 10 -138 25 -162 7 -10 94 1 446 60 715 120 744 125 741 137 -7 26 -284 374 -298 374 -8 0 -215 -90 -460 -200z"></path>
<path d="M1330 4050 c-146 -27 -411 -74 -590 -106 -179 -31 -327 -58 -329 -60 -2 -2 31 -67 74 -146 l77 -144 135 -73 135 -74 92 6 c181 13 490 59 507 76 18 17 289 457 289 467 0 4 -17 29 -37 55 -45 60 -18 60 -353 -1z"></path>
<path d="M1575 3559 c-93 -150 -66 -136 -315 -169 -91 -12 -168 -25 -172 -29 -4 -4 -41 -148 -83 -321 -41 -173 -95 -400 -120 -503 -25 -104 -45 -200 -45 -215 -1 -38 54 -392 60 -391 3 0 118 150 255 332 l250 332 36 150 c70 285 219 938 216 941 -2 2 -39 -55 -82 -127z"></path>
<path d="M364 3270 c-109 -115 -200 -214 -202 -219 -2 -5 20 -12 48 -16 35 -5 50 -11 46 -20 -2 -7 -14 -46 -26 -86 -23 -80 -100 -326 -107 -346 -4 -10 10 -13 49 -13 30 0 57 -2 60 -5 2 -3 -6 -85 -18 -183 -29 -220 -29 -204 1 -192 31 12 30 13 84 -152 24 -71 43 -128 44 -128 1 0 35 9 76 20 41 10 77 17 81 15 3 -2 62 -124 130 -270 86 -185 126 -261 130 -248 4 10 17 99 30 198 l23 180 -41 259 -41 259 85 356 c98 408 154 651 154 663 0 4 -39 8 -87 8 -93 0 -79 -5 -269 101 l-50 28 -200 -209z"></path>
<path d="M1706 3429 c-3 -8 -17 -66 -31 -129 -15 -63 -42 -182 -61 -265 -57 -246 -54 -230 -39 -214 27 29 305 401 305 409 0 5 -127 166 -166 209 -2 2 -6 -2 -8 -10z"></path>
<path d="M1948 3143 c-15 -17 -774 -1019 -953 -1258 l-82 -110 -16 -115 c-9 -63 -15 -115 -14 -116 9 -7 960 -165 970 -161 6 3 55 107 107 232 54 129 102 231 112 236 10 5 356 61 770 124 414 64 764 118 777 121 l24 5 -29 18 c-16 10 -393 248 -838 530 -445 281 -810 511 -811 511 -1 0 -9 -8 -17 -17z"></path>
<path d="M3690 2003 c-15 -2 -355 -54 -757 -116 -403 -62 -732 -116 -732 -122 -1 -18 1164 -1614 1178 -1615 9 0 429 150 579 207 9 4 12 128 12 571 l0 566 -106 258 c-115 278 -104 262 -174 251z"></path>
<path d="M2023 1507 l-81 -193 167 -585 166 -584 483 -3 c265 -1 482 1 482 5 0 5 -199 280 -441 613 -242 333 -495 680 -561 773 -67 92 -124 167 -127 167 -4 0 -43 -87 -88 -193z"></path>
<path d="M4074 1435 c-2 -5 -3 -177 -2 -380 l3 -370 109 367 c60 203 107 370 104 373 -11 11 -210 21 -214 10z"></path>
<path d="M865 1418 c-3 -13 -41 -288 -85 -613 -44 -324 -83 -607 -86 -628 l-6 -37 90 0 90 0 16 48 c39 118 356 1185 354 1187 -4 4 -342 65 -357 65 -6 0 -13 -10 -16 -22z"></path>
<path d="M1977 484 c-48 -7 -91 -16 -96 -18 -10 -6 -231 -313 -231 -321 0 -3 117 -5 260 -5 143 0 260 1 260 3 0 6 -100 350 -102 352 -2 1 -43 -4 -91 -11z"></path>
<path d="M502 238 c-56 -46 -101 -86 -101 -90 -1 -10 176 -10 183 0 6 10 27 164 22 169 -2 2 -49 -34 -104 -79z"></path>
</g>
</svg>
